<svg xmlns="http://www.w3.org/2000/svg" viewBox="0 0 1726.15 850.39"><path d="M384.85,260.93c45.95,0,77.17,27.52,84.29,68.56H411.63c-5.16-11.55-15.48-18.18-27.77-18.18-18.43,0-29.73,15-29.73,38.09s11.3,38.09,29.73,38.09c12.29,0,22.61-6.63,27.77-18.18h57.51c-7.12,41-38.34,68.56-84.29,68.56-53.33,0-86-36.62-86-88.47S331.52,260.93,384.85,260.93Z" transform="translate(-20.8 -4.27)"/><path d="M487.81,262.65h54.31V360.7c0,15,5.9,26.05,22.37,26.05s23.1-11.06,23.1-26.05V262.65H641.9V360.7c0,51.37-35.14,77.66-78.64,77.66s-75.45-26.29-75.45-77.66Z" transform="translate(-20.8 -4.27)"/><path d="M756.66,436.64H665.49v-174h88.72c34.65,0,57,15,57,45.22,0,20.89-12,35.14-29.24,39.56,21.38,5.16,33.17,22.12,33.17,41.54C815.15,419.44,794.51,436.64,756.66,436.64ZM741.18,305.9H720.05v24.58h21.13c9.83,0,14.5-3.69,14.5-12.05C755.68,309.83,751,305.9,741.18,305.9Zm3.69,62.42H720.05V392.9h24.82c9.83,0,14.5-3.44,14.5-12C759.37,372.5,754.7,368.32,744.87,368.32Z" transform="translate(-20.8 -4.27)"/><path d="M945.15,410.35h-58l-8.6,26.29H821.29l63.65-174h62.92l63.4,174H953.75Zm-29-89.46-15.72,48.42h31.45Z" transform="translate(-20.8 -4.27)"/><path d="M493.52,461.21h66.85l38.34,104.45,37.35-104.45h66.6v174H648.35V548.46l-26.79,86.75H574.87l-26.79-86.75v86.75H493.52Z" transform="translate(-20.8 -4.27)"/><path d="M727.23,461.21h54.56v174H727.23Z" transform="translate(-20.8 -4.27)"/><path d="M874.43,636.93c-39.81,0-71-18.43-73.48-57.51h58c1,12.78,7.86,15,13.27,15s10.57-2.46,10.57-8.6c-.25-23.59-82.33-15-81.35-74.46,0-34.9,29.49-53.09,66.6-53.09,42,0,69.06,20.16,70.54,56.28H879.84c-.49-10.57-6.14-13.76-12-13.76-4.43,0-7.87,3-7.87,8.85,0,21.87,80.86,18.18,80.86,71.76C940.79,613.34,916.46,636.93,874.43,636.93Z" transform="translate(-20.8 -4.27)"/><path d="M1028,636.93c-39.82,0-71-18.43-73.48-57.51h58c1,12.78,7.87,15,13.28,15s10.56-2.46,10.56-8.6c-.24-23.59-82.33-15-81.34-74.46,0-34.9,29.49-53.09,66.6-53.09,42,0,69.06,20.16,70.53,56.28h-58.74c-.49-10.57-6.14-13.76-12-13.76-4.42,0-7.86,3-7.86,8.85,0,21.87,80.85,18.18,80.85,71.76C1094.38,613.34,1070.05,636.93,1028,636.93Z" transform="translate(-20.8 -4.27)"/><path d="M1113.55,461.21h54.56v174h-54.56Z" transform="translate(-20.8 -4.27)"/><path d="M1359.55,461.21v174H1305l-57.76-87.49v87.49h-54.55v-174h54.55l57.76,89v-89Z" transform="translate(-20.8 -4.27)"/><path d="M1548.28,520.69h-57.51c-4.18-6.64-12-10.82-23.34-10.82-21.14,0-32.94,15-32.94,38.09,0,27,12.29,40.55,39.08,40.55,12.29,0,22.36-4.42,30.47-15.23h-43.5V534.69h88.72v54.56c-12,20.89-36.61,47.19-81.59,47.19-54.8,0-88.47-36.62-88.47-88.48s33.42-88.47,88-88.47C1513.38,459.49,1543.12,483.58,1548.28,520.69Z" transform="translate(-20.8 -4.27)"/><path d="M76.28,753.6c30.79,0,54.26,21.64,54.26,56.09v45H22.63v-45C22.63,775.24,45.19,753.6,76.28,753.6Zm24.09,59.14c0-14.94-8.39-24.85-24.09-24.85S52.2,797.8,52.2,812.74v8.07h48.17Z" transform="translate(-20.8 -4.27)" style="fill:#db3131"/><path d="M49.61,669.46v38.11H62.87V674H88.32v33.53h15.25V669.46h27v71.95H22.63V669.46Z" transform="translate(-20.8 -4.27)" style="fill:#db3131"/><path d="M131.61,614.44c0,24.69-11.43,44-35.66,45.58V624c7.92-.61,9.29-4.87,9.29-8.23s-1.52-6.55-5.33-6.55c-14.63.15-9.3,51.06-46.18,50.45-21.65,0-32.93-18.29-32.93-41.31,0-26.06,12.5-42.83,34.91-43.74v36.43c-6.56.3-8.54,3.81-8.54,7.47,0,2.74,1.83,4.87,5.49,4.87,13.56,0,11.28-50.14,44.51-50.14C117,573.29,131.61,588.38,131.61,614.44Z" transform="translate(-20.8 -4.27)" style="fill:#db3131"/><path d="M114.24,492.2v36l16.3,5.34V569L22.63,529.54v-39L130.54,451.2v35.67Zm-55.49,18,30,9.75V500.43Z" transform="translate(-20.8 -4.27)" style="fill:#db3131"/><path d="M96.25,396.33v13.41h34.29v33.84H22.63V396.33c0-27.13,15.24-41,37-41C79.64,355.33,96.25,369.2,96.25,396.33Zm-26.67,3.81c0-7.62-4-10.52-9.91-10.52s-9.91,2.9-9.91,10.52v9.6H69.58Z" transform="translate(-20.8 -4.27)" style="fill:#db3131"/><path d="M114.24,275.47v36l16.3,5.33v35.52L22.63,312.81v-39l107.91-39.32v35.66Zm-55.49,18,30,9.76V283.7Z" transform="translate(-20.8 -4.27)" style="fill:#db3131"/><path d="M150.66,621.4c0-27.13,15.55-41,35.36-41,14.18,0,26.22,7.93,31.25,23.32l41.3-23.47v37.19l-38.71,20.27v.16h38.71V671.7H150.66ZM179,624.45v13.42H197.3V624.45c0-6.4-2.74-9.75-9.14-9.75C182.67,614.7,179,618.05,179,624.45Z" transform="translate(-20.8 -4.27)" style="fill:#db3131"/><path d="M177.64,497.64v38.11H190.9V502.21h25.45v33.54H231.6V497.64h27v71.94H150.66V497.64Z" transform="translate(-20.8 -4.27)" style="fill:#db3131"/><path d="M149.59,434.54c0-28.5,17.08-47.86,42.53-52.28v35.67a18.37,18.37,0,0,0-11.28,17.22c0,11.43,9.3,18.44,23.62,18.44s23.63-7,23.63-18.44a18.37,18.37,0,0,0-11.28-17.22V382.26c25.45,4.42,42.53,23.78,42.53,52.28,0,33.07-22.71,53.35-54.88,53.35S149.59,467.61,149.59,434.54Z" transform="translate(-20.8 -4.27)" style="fill:#db3131"/><path d="M150.66,370.07V336.23H258.57v33.84Z" transform="translate(-20.8 -4.27)" style="fill:#db3131"/><path d="M204.31,219.94c30.79,0,54.26,21.64,54.26,56.09v45H150.66V276C150.66,241.58,173.22,219.94,204.31,219.94Zm24.08,59.14c0-14.94-8.38-24.85-24.08-24.85s-24.08,9.91-24.08,24.85v8.07h48.16Z" transform="translate(-20.8 -4.27)" style="fill:#db3131"/><path d="M259.64,155.16c0,30.64-23,55.63-55.48,55.63s-55.33-25-55.33-55.63,22.86-55.33,55.33-55.33S259.64,124.68,259.64,155.16Zm-31.55,0c0-13.57-9.6-21-23.93-21-14.63,0-24.08,7.46-24.08,21,0,13.87,9.45,21.19,24.08,21.19C218.49,176.35,228.09,169,228.09,155.16Z" transform="translate(-20.8 -4.27)" style="fill:#db3131"/><path d="M259.64,45.42c0,24.69-11.43,44.05-35.67,45.57V55c7.93-.61,9.3-4.87,9.3-8.23s-1.52-6.55-5.33-6.55c-14.63.15-9.3,51.06-46.19,50.45-21.64,0-32.92-18.29-32.92-41.31,0-26.06,12.5-42.83,34.91-43.74V42.07c-6.56.3-8.54,3.81-8.54,7.47,0,2.74,1.83,4.87,5.49,4.87,13.56,0,11.28-50.14,44.5-50.14C245,4.27,259.64,19.36,259.64,45.42Z" transform="translate(-20.8 -4.27)" style="fill:#db3131"/><path d="M1555.43,635.33c-5.82,0-9.43-3.54-9.43-8s3.61-8.17,9.43-8.17,9.35,3.6,9.35,8.17S1561.17,635.33,1555.43,635.33Z" transform="translate(-20.8 -4.27)"/><path d="M1595.12,582.09c13.77,0,23.12,8.24,25.26,20.54h-17.23a8.88,8.88,0,0,0-8.33-5.45c-5.52,0-8.91,4.49-8.91,11.42s3.39,11.41,8.91,11.41a8.88,8.88,0,0,0,8.33-5.45h17.23c-2.14,12.3-11.49,20.54-25.26,20.54-16,0-25.77-11-25.77-26.5S1579.14,582.09,1595.12,582.09Z" transform="translate(-20.8 -4.27)"/><path d="M1651.67,635.25c-14.8,0-26.88-11.12-26.88-26.8s12.08-26.73,26.88-26.73,26.73,11,26.73,26.73S1666.4,635.25,1651.67,635.25Zm0-15.24c6.55,0,10.16-4.64,10.16-11.56,0-7.07-3.61-11.64-10.16-11.64-6.7,0-10.24,4.57-10.24,11.64C1641.43,615.37,1645,620,1651.67,620Z" transform="translate(-20.8 -4.27)"/><path d="M1684.29,582.6h20l11.48,31.3,11.2-31.3h20v52.14h-16.27v-26l-8,26h-14l-8-26v26h-16.34Z" transform="translate(-20.8 -4.27)"/></svg>